<?xml version="1.0" standalone="no"?>
<!DOCTYPE svg PUBLIC "-//W3C//DTD SVG 20010904//EN"
 "http://www.w3.org/TR/2001/REC-SVG-20010904/DTD/svg10.dtd">
<svg version="1.0" xmlns="http://www.w3.org/2000/svg"
 width="900.000000pt" height="675.000000pt" viewBox="0 0 900.000000 675.000000"
 preserveAspectRatio="xMidYMid meet">
<metadata>
Created by potrace 1.10, written by Peter Selinger 2001-2011
</metadata>
<g transform="translate(0.000000,675.000000) scale(0.100000,-0.100000)"
fill="#ff6a00" stroke="none">
<path d="M3742 4978 c-11 -15 0 -208 17 -297 6 -29 11 -81 11 -115 0 -33 7
-110 15 -171 15 -120 30 -270 45 -465 5 -69 14 -149 20 -179 5 -29 10 -75 10
-102 0 -55 15 -72 30 -34 13 34 60 136 71 155 5 8 12 22 15 30 3 8 23 51 44
95 58 122 141 296 208 438 l61 127 239 0 c131 0 241 -3 245 -6 3 -4 -7 -32
-23 -63 -27 -54 -85 -174 -150 -314 -17 -38 -63 -134 -101 -215 -38 -80 -68
-153 -67 -161 3 -13 23 -17 93 -22 153 -10 300 -77 425 -195 68 -64 170 -200
170 -226 0 -8 5 -19 10 -24 6 -6 20 -42 32 -80 29 -94 31 -338 4 -429 -97
-325 -388 -544 -724 -545 -207 0 -371 64 -522 204 -201 187 -285 468 -219 737
12 48 19 94 16 103 -6 14 -38 16 -255 16 -188 0 -252 -3 -260 -12 -19 -25 -32
-146 -32 -300 0 -171 15 -278 56 -393 14 -38 28 -79 31 -89 20 -64 138 -257
202 -331 188 -214 416 -356 686 -425 90 -23 276 -36 386 -28 173 13 369 69
489 139 8 5 26 14 40 20 14 6 39 21 57 35 17 13 36 24 40 24 17 0 191 159 247
225 48 57 98 127 143 200 20 33 64 128 79 170 8 22 18 49 23 60 32 75 61 259
60 390 0 108 -20 293 -35 316 -4 7 -11 29 -15 48 -22 105 -140 342 -200 402
-10 10 -19 23 -19 27 0 16 -155 170 -222 222 -38 28 -68 57 -68 62 0 6 106
224 236 484 138 277 234 480 231 489 -6 13 -110 15 -935 15 -732 0 -932 -3
-940 -12z"/>
<path d="M4301 3268 c-71 -29 -155 -107 -187 -174 -68 -145 -38 -316 75 -422
98 -91 227 -123 348 -86 32 9 65 23 74 31 8 7 20 13 26 13 19 0 101 96 129
151 25 48 28 64 28 149 0 83 -4 102 -27 150 -36 73 -99 139 -167 175 -48 25
-67 30 -150 32 -79 2 -104 -1 -149 -19z"/>
</g>
</svg>
